<mxfile host="app.diagrams.net" modified="2022-03-21T17:54:18.285Z" agent="5.0 (Windows NT 10.0; WOW64) AppleWebKit/537.36 (KHTML, like Gecko) Chrome/75.0.3770.100 Safari/537.36" etag="U4Q4ZNFByy1QwHr8WHHX" version="16.6.6" type="github">
  <diagram id="QWY6pxIXzyvx_8Pqc_8q" name="第 1 页">
    <mxGraphModel dx="1038" dy="1713" grid="1" gridSize="10" guides="1" tooltips="1" connect="1" arrows="1" fold="1" page="1" pageScale="1" pageWidth="827" pageHeight="1169" math="0" shadow="0">
      <root>
        <mxCell id="0" />
        <mxCell id="1" parent="0" />
        <mxCell id="9dJchCqGI2p8ibBqzcwE-8" value="&lt;b&gt;&lt;font style=&quot;font-size: 36px&quot;&gt;...&lt;/font&gt;&lt;/b&gt;" style="text;html=1;align=center;verticalAlign=middle;resizable=0;points=[];autosize=1;strokeColor=none;fillColor=none;horizontal=0;" vertex="1" parent="1">
          <mxGeometry x="380" y="140" width="40" height="40" as="geometry" />
        </mxCell>
        <mxCell id="9dJchCqGI2p8ibBqzcwE-9" value="基础通用服务&lt;br&gt;(common-service)" style="rounded=1;whiteSpace=wrap;html=1;fillColor=#d5e8d4;strokeColor=#82b366;align=center;" vertex="1" parent="1">
          <mxGeometry x="354" y="-150" width="120" height="90" as="geometry" />
        </mxCell>
        <mxCell id="9dJchCqGI2p8ibBqzcwE-10" value="&lt;div&gt;&lt;span style=&quot;font-size: 12px&quot;&gt;&lt;b&gt;Mysql&lt;/b&gt;&lt;/span&gt;&lt;/div&gt;" style="shape=datastore;whiteSpace=wrap;html=1;fontSize=36;align=center;" vertex="1" parent="1">
          <mxGeometry x="660" y="-10" width="60" height="60" as="geometry" />
        </mxCell>
        <mxCell id="9dJchCqGI2p8ibBqzcwE-11" value="&lt;font style=&quot;font-size: 12px&quot;&gt;&lt;b&gt;Redis&lt;/b&gt;&lt;/font&gt;" style="shape=datastore;whiteSpace=wrap;html=1;fontSize=36;" vertex="1" parent="1">
          <mxGeometry x="660" y="160" width="60" height="60" as="geometry" />
        </mxCell>
        <mxCell id="9dJchCqGI2p8ibBqzcwE-13" value="&lt;div&gt;&lt;span style=&quot;font-size: 12px&quot;&gt;&lt;b&gt;Mysql&lt;/b&gt;&lt;/span&gt;&lt;/div&gt;" style="shape=datastore;whiteSpace=wrap;html=1;fontSize=36;align=center;" vertex="1" parent="1">
          <mxGeometry x="750" y="-10" width="60" height="60" as="geometry" />
        </mxCell>
        <mxCell id="9dJchCqGI2p8ibBqzcwE-14" value="&lt;font style=&quot;font-size: 12px&quot;&gt;&lt;b&gt;Redis&lt;/b&gt;&lt;/font&gt;" style="shape=datastore;whiteSpace=wrap;html=1;fontSize=36;" vertex="1" parent="1">
          <mxGeometry x="750" y="160" width="60" height="60" as="geometry" />
        </mxCell>
        <mxCell id="9dJchCqGI2p8ibBqzcwE-15" value="&lt;font style=&quot;font-size: 12px&quot;&gt;&lt;b&gt;Redis&lt;/b&gt;&lt;/font&gt;" style="shape=datastore;whiteSpace=wrap;html=1;fontSize=36;" vertex="1" parent="1">
          <mxGeometry x="840" y="160" width="60" height="60" as="geometry" />
        </mxCell>
        <mxCell id="9dJchCqGI2p8ibBqzcwE-17" value="&lt;div&gt;&lt;span style=&quot;font-size: 12px&quot;&gt;&lt;b&gt;Mysql&lt;/b&gt;&lt;/span&gt;&lt;/div&gt;" style="shape=datastore;whiteSpace=wrap;html=1;fontSize=36;align=center;" vertex="1" parent="1">
          <mxGeometry x="840" y="-10" width="60" height="60" as="geometry" />
        </mxCell>
        <mxCell id="9dJchCqGI2p8ibBqzcwE-21" value="Mysql主从模式, 读写分离(主写从读)，分库分表" style="text;html=1;strokeColor=none;fillColor=none;align=center;verticalAlign=middle;whiteSpace=wrap;rounded=0;labelBackgroundColor=none;fontSize=12;" vertex="1" parent="1">
          <mxGeometry x="720" y="-50" width="140" height="30" as="geometry" />
        </mxCell>
        <mxCell id="9dJchCqGI2p8ibBqzcwE-23" value="Redis集群(主从模式)，读写分离(主写从读)" style="text;html=1;strokeColor=none;fillColor=none;align=center;verticalAlign=middle;whiteSpace=wrap;rounded=0;labelBackgroundColor=none;fontSize=12;" vertex="1" parent="1">
          <mxGeometry x="720" y="120" width="130" height="30" as="geometry" />
        </mxCell>
        <mxCell id="9dJchCqGI2p8ibBqzcwE-24" value="Eureka Server" style="rounded=1;whiteSpace=wrap;html=1;labelBackgroundColor=none;fontSize=12;fillColor=#dae8fc;strokeColor=#6c8ebf;" vertex="1" parent="1">
          <mxGeometry x="200" y="370" width="120" height="80" as="geometry" />
        </mxCell>
        <mxCell id="9dJchCqGI2p8ibBqzcwE-26" value="服务注册器" style="text;html=1;strokeColor=none;fillColor=none;align=center;verticalAlign=middle;whiteSpace=wrap;rounded=0;labelBackgroundColor=none;fontSize=12;" vertex="1" parent="1">
          <mxGeometry x="200" y="410" width="100" height="30" as="geometry" />
        </mxCell>
        <mxCell id="9dJchCqGI2p8ibBqzcwE-28" value="" style="endArrow=classic;html=1;rounded=0;fontSize=12;exitX=1;exitY=0.5;exitDx=0;exitDy=0;" edge="1" parent="1" source="9dJchCqGI2p8ibBqzcwE-65">
          <mxGeometry width="50" height="50" relative="1" as="geometry">
            <mxPoint x="480" y="260" as="sourcePoint" />
            <mxPoint x="320" y="420" as="targetPoint" />
            <Array as="points">
              <mxPoint x="520" y="-80" />
              <mxPoint x="520" y="420" />
            </Array>
          </mxGeometry>
        </mxCell>
        <mxCell id="9dJchCqGI2p8ibBqzcwE-48" value="" style="strokeWidth=2;html=1;shape=mxgraph.flowchart.annotation_2;align=left;labelPosition=right;pointerEvents=1;labelBackgroundColor=none;fontSize=9;" vertex="1" parent="1">
          <mxGeometry x="610" y="30" width="50" height="170" as="geometry" />
        </mxCell>
        <mxCell id="9dJchCqGI2p8ibBqzcwE-50" value="" style="strokeWidth=2;html=1;shape=mxgraph.flowchart.annotation_2;align=left;labelPosition=right;pointerEvents=1;labelBackgroundColor=none;fontSize=9;rotation=-180;" vertex="1" parent="1">
          <mxGeometry x="530" y="-130" width="80" height="490" as="geometry" />
        </mxCell>
        <mxCell id="9dJchCqGI2p8ibBqzcwE-51" value="&lt;span style=&quot;font-size: 12px&quot;&gt;数据持久化&lt;/span&gt;" style="text;html=1;strokeColor=none;fillColor=none;align=center;verticalAlign=middle;whiteSpace=wrap;rounded=0;labelBackgroundColor=none;fontSize=9;" vertex="1" parent="1">
          <mxGeometry x="570" y="70" width="60" height="50" as="geometry" />
        </mxCell>
        <mxCell id="9dJchCqGI2p8ibBqzcwE-56" value="Feign" style="rounded=1;whiteSpace=wrap;html=1;labelBackgroundColor=none;fontSize=12;fillColor=#dae8fc;strokeColor=#6c8ebf;" vertex="1" parent="1">
          <mxGeometry x="150" y="-160" width="70" height="40" as="geometry" />
        </mxCell>
        <mxCell id="9dJchCqGI2p8ibBqzcwE-63" value="Ribbon" style="rounded=1;whiteSpace=wrap;html=1;labelBackgroundColor=none;fontSize=12;fillColor=#dae8fc;strokeColor=#6c8ebf;" vertex="1" parent="1">
          <mxGeometry x="150" y="-55" width="70" height="40" as="geometry" />
        </mxCell>
        <mxCell id="9dJchCqGI2p8ibBqzcwE-65" value="&lt;span style=&quot;background-color: rgb(255 , 179 , 102)&quot;&gt;Eureka Client&lt;/span&gt;" style="rounded=1;whiteSpace=wrap;html=1;labelBackgroundColor=#FFFFFF;fontSize=12;fillColor=#FFB366;strokeColor=#d79b00;" vertex="1" parent="1">
          <mxGeometry x="364" y="-90" width="100" height="20" as="geometry" />
        </mxCell>
        <mxCell id="9dJchCqGI2p8ibBqzcwE-70" value="基础通用服务&lt;br&gt;(common-service)" style="rounded=1;whiteSpace=wrap;html=1;fillColor=#d5e8d4;strokeColor=#82b366;align=center;" vertex="1" parent="1">
          <mxGeometry x="354" y="180" width="120" height="90" as="geometry" />
        </mxCell>
        <mxCell id="9dJchCqGI2p8ibBqzcwE-71" value="&lt;span style=&quot;background-color: rgb(255 , 179 , 102)&quot;&gt;Eureka Client&lt;/span&gt;" style="rounded=1;whiteSpace=wrap;html=1;labelBackgroundColor=#FFFFFF;fontSize=12;fillColor=#FFB366;strokeColor=#d79b00;" vertex="1" parent="1">
          <mxGeometry x="364" y="240" width="100" height="20" as="geometry" />
        </mxCell>
        <mxCell id="9dJchCqGI2p8ibBqzcwE-72" value="片段音频指纹服务&lt;br&gt;(common-service)" style="rounded=1;whiteSpace=wrap;html=1;fillColor=#d5e8d4;strokeColor=#82b366;align=center;" vertex="1" parent="1">
          <mxGeometry x="354" y="-50" width="120" height="90" as="geometry" />
        </mxCell>
        <mxCell id="9dJchCqGI2p8ibBqzcwE-73" value="&lt;span style=&quot;background-color: rgb(255 , 179 , 102)&quot;&gt;Eureka Client&lt;/span&gt;" style="rounded=1;whiteSpace=wrap;html=1;labelBackgroundColor=#FFFFFF;fontSize=12;fillColor=#FFB366;strokeColor=#d79b00;" vertex="1" parent="1">
          <mxGeometry x="364" y="10" width="100" height="20" as="geometry" />
        </mxCell>
        <mxCell id="9dJchCqGI2p8ibBqzcwE-74" value="基础通用服务&lt;br&gt;(common-service)" style="rounded=1;whiteSpace=wrap;html=1;fillColor=#d5e8d4;strokeColor=#82b366;align=center;" vertex="1" parent="1">
          <mxGeometry x="354" y="280" width="120" height="90" as="geometry" />
        </mxCell>
        <mxCell id="9dJchCqGI2p8ibBqzcwE-75" value="&lt;span style=&quot;background-color: rgb(255 , 179 , 102)&quot;&gt;Eureka Client&lt;/span&gt;" style="rounded=1;whiteSpace=wrap;html=1;labelBackgroundColor=#FFFFFF;fontSize=12;fillColor=#FFB366;strokeColor=#d79b00;" vertex="1" parent="1">
          <mxGeometry x="364" y="340" width="100" height="20" as="geometry" />
        </mxCell>
        <mxCell id="9dJchCqGI2p8ibBqzcwE-76" value="两两匹配服务&lt;br&gt;(common-service)" style="rounded=1;whiteSpace=wrap;html=1;fillColor=#d5e8d4;strokeColor=#82b366;align=center;" vertex="1" parent="1">
          <mxGeometry x="354" y="50" width="120" height="90" as="geometry" />
        </mxCell>
        <mxCell id="9dJchCqGI2p8ibBqzcwE-77" value="&lt;span style=&quot;background-color: rgb(255 , 179 , 102)&quot;&gt;Eureka Client&lt;/span&gt;" style="rounded=1;whiteSpace=wrap;html=1;labelBackgroundColor=#FFFFFF;fontSize=12;fillColor=#FFB366;strokeColor=#d79b00;" vertex="1" parent="1">
          <mxGeometry x="364" y="110" width="100" height="20" as="geometry" />
        </mxCell>
        <mxCell id="9dJchCqGI2p8ibBqzcwE-80" value="" style="endArrow=classic;html=1;rounded=0;fontSize=12;exitX=1;exitY=0.5;exitDx=0;exitDy=0;" edge="1" parent="1" source="9dJchCqGI2p8ibBqzcwE-73">
          <mxGeometry width="50" height="50" relative="1" as="geometry">
            <mxPoint x="490" y="90" as="sourcePoint" />
            <mxPoint x="320" y="393" as="targetPoint" />
            <Array as="points">
              <mxPoint x="500" y="20" />
              <mxPoint x="500" y="393" />
            </Array>
          </mxGeometry>
        </mxCell>
        <mxCell id="9dJchCqGI2p8ibBqzcwE-81" value="" style="endArrow=classic;html=1;rounded=0;fontSize=12;exitX=0;exitY=0.5;exitDx=0;exitDy=0;entryX=0.563;entryY=-0.018;entryDx=0;entryDy=0;entryPerimeter=0;" edge="1" parent="1" source="9dJchCqGI2p8ibBqzcwE-77" target="9dJchCqGI2p8ibBqzcwE-24">
          <mxGeometry width="50" height="50" relative="1" as="geometry">
            <mxPoint x="490" y="190" as="sourcePoint" />
            <mxPoint x="220" y="95" as="targetPoint" />
            <Array as="points">
              <mxPoint x="270" y="120" />
            </Array>
          </mxGeometry>
        </mxCell>
        <mxCell id="9dJchCqGI2p8ibBqzcwE-82" value="" style="endArrow=classic;html=1;rounded=0;fontSize=12;exitX=0;exitY=0.5;exitDx=0;exitDy=0;entryX=0.657;entryY=-0.028;entryDx=0;entryDy=0;entryPerimeter=0;" edge="1" parent="1" source="9dJchCqGI2p8ibBqzcwE-71" target="9dJchCqGI2p8ibBqzcwE-24">
          <mxGeometry width="50" height="50" relative="1" as="geometry">
            <mxPoint x="490" y="190" as="sourcePoint" />
            <mxPoint x="270" y="225" as="targetPoint" />
            <Array as="points">
              <mxPoint x="280" y="250" />
            </Array>
          </mxGeometry>
        </mxCell>
        <mxCell id="9dJchCqGI2p8ibBqzcwE-83" value="" style="endArrow=classic;html=1;rounded=0;fontSize=12;exitX=0;exitY=0.75;exitDx=0;exitDy=0;entryX=0.75;entryY=0;entryDx=0;entryDy=0;" edge="1" parent="1" source="9dJchCqGI2p8ibBqzcwE-75" target="9dJchCqGI2p8ibBqzcwE-24">
          <mxGeometry width="50" height="50" relative="1" as="geometry">
            <mxPoint x="490" y="190" as="sourcePoint" />
            <mxPoint x="270" y="320" as="targetPoint" />
            <Array as="points">
              <mxPoint x="290" y="355" />
            </Array>
          </mxGeometry>
        </mxCell>
        <mxCell id="9dJchCqGI2p8ibBqzcwE-84" value="" style="endArrow=classic;html=1;rounded=0;fontSize=12;entryX=0;entryY=0.5;entryDx=0;entryDy=0;exitX=0.25;exitY=0;exitDx=0;exitDy=0;" edge="1" parent="1" source="9dJchCqGI2p8ibBqzcwE-24" target="9dJchCqGI2p8ibBqzcwE-73">
          <mxGeometry width="50" height="50" relative="1" as="geometry">
            <mxPoint x="80" y="40" as="sourcePoint" />
            <mxPoint x="540" y="40" as="targetPoint" />
            <Array as="points">
              <mxPoint x="230" y="20" />
            </Array>
          </mxGeometry>
        </mxCell>
      </root>
    </mxGraphModel>
  </diagram>
</mxfile>
